<?xml version="1.0" encoding="UTF-8" standalone="no"?>
<!-- Created with Inkscape (http://www.inkscape.org/) -->

<svg
   xmlns:dc="http://purl.org/dc/elements/1.1/"
   xmlns:cc="http://creativecommons.org/ns#"
   xmlns:rdf="http://www.w3.org/1999/02/22-rdf-syntax-ns#"
   xmlns:svg="http://www.w3.org/2000/svg"
   xmlns="http://www.w3.org/2000/svg"
   xmlns:sodipodi="http://sodipodi.sourceforge.net/DTD/sodipodi-0.dtd"
   xmlns:inkscape="http://www.inkscape.org/namespaces/inkscape"
   width="210mm"
   height="297mm"
   viewBox="0 0 210 297"
   version="1.1"
   id="svg8"
   inkscape:version="0.92.4 (5da689c313, 2019-01-14)"
   sodipodi:docname="drawing.svg">
  <defs
     id="defs2" />
  <sodipodi:namedview
     id="base"
     pagecolor="#ffffff"
     bordercolor="#666666"
     borderopacity="1.0"
     inkscape:pageopacity="0.0"
     inkscape:pageshadow="2"
     inkscape:zoom="0.35"
     inkscape:cx="400"
     inkscape:cy="445.71429"
     inkscape:document-units="mm"
     inkscape:current-layer="layer1"
     showgrid="false"
     inkscape:window-width="1920"
     inkscape:window-height="1017"
     inkscape:window-x="-8"
     inkscape:window-y="-8"
     inkscape:window-maximized="1" />
  <metadata
     id="metadata5">
    <rdf:RDF>
      <cc:Work
         rdf:about="">
        <dc:format>image/svg+xml</dc:format>
        <dc:type
           rdf:resource="http://purl.org/dc/dcmitype/StillImage" />
        <dc:title />
      </cc:Work>
    </rdf:RDF>
  </metadata>
  <g
     inkscape:label="Layer 1"
     inkscape:groupmode="layer"
     id="layer1">
    <rect
       id="rect3713"
       width="103.56547"
       height="92.98214"
       x="0"
       y="0"
       style="stroke-width:0.26458332" />
    <path
       style="stroke-width:2.85714293"
       d="M 0,175.66254 V 1.3768236 H 195.71429 391.42857 V 175.66254 349.94825 H 195.71429 0 Z"
       id="path8"
       inkscape:connector-curvature="0"
       transform="scale(0.26458333)" />
    <ellipse
       id="path10"
       cx="51.782734"
       cy="50.9375"
       rx="11.717261"
       ry="13.985119"
       style="stroke-width:0.26458332;fill:#800080" />
    <ellipse
       style="fill:#ccff00;stroke-width:0.26458332"
       id="path12"
       cx="21.922617"
       cy="47.535713"
       rx="9.8273811"
       ry="28.726189" />
    <ellipse
       style="fill:#ff0000;stroke-width:0.26458332"
       id="path14"
       cx="81.264877"
       cy="52.449406"
       rx="8.6934528"
       ry="26.836309" />
    <path
       style="fill:none;stroke:#000000;stroke-width:0.26458332px;stroke-linecap:butt;stroke-linejoin:miter;stroke-opacity:1"
       d="m 51.40476,21.833333 c -3.225395,-2.419048 -1.763887,-2.267857 -3.779761,-2.267857 -0.251983,0 -0.577773,-0.17818 -0.755951,0 -0.178181,0.178179 0,0.503968 0,0.755952 0,0.251984 0,0.503969 0,0.755953 0,0.183338 0.02432,2.243545 0,2.267857 -0.178181,0.17818 -0.577773,-0.17818 -0.755954,0 -0.234077,0.234078 0.234079,3.545683 0,3.779763 -0.178179,0.178178 -0.577771,-0.178181 -0.755952,0 -0.50297,0.50297 0.50297,1.008933 0,1.511903 -0.178178,0.178181 -0.577773,-0.178178 -0.755952,0 -0.356359,0.35636 0.22538,1.061143 0,1.511906 -1.573046,3.146092 0.05219,-0.808141 -1.511906,0.755952 -0.178178,0.178178 0.178181,0.577773 0,0.755951 -0.178178,0.178181 -0.57777,-0.178178 -0.755951,0 -0.181907,0.181907 0.181906,2.841906 0,3.023809 -1.564092,1.564093 0.06114,-2.39014 -1.511906,0.755955 -0.205047,0.410093 0.206846,2.816963 0,3.023809 -0.178178,0.178178 -0.577771,-0.178181 -0.755952,0 -0.178178,0.178178 0,0.503968 0,0.755951 0,1.76389 0,3.527777 0,5.291667 0,2.519841 0,5.039683 0,7.559524 0,0.395303 0.09939,2.825038 0,3.023809 -0.159369,0.318738 -0.596582,0.437216 -0.755951,0.755952 -0.112692,0.225382 0.178178,0.577773 0,0.755954 -0.178181,0.178178 -0.577774,-0.178181 -0.755952,0 -0.03426,0.03426 0,3.42333 0,3.779761 0,0.251984 0.178178,0.577773 0,0.755951 -0.178181,0.178181 -0.577773,-0.178178 -0.755954,0 -0.178179,0.178181 0.178181,0.577774 0,0.755955 -0.178179,0.178178 -0.577771,-0.178181 -0.755952,0 -0.03426,0.03426 0,3.42333 0,3.77976 0,0.251984 -0.178181,0.577774 0,0.755952 0.178181,0.178181 0.577773,-0.178178 0.755952,0 0.50297,0.50297 -0.50297,1.008936 0,1.511906 0.178181,0.178178 0.577773,-0.178181 0.755954,0 0.178178,0.178178 -0.178181,0.577773 0,0.755952 0.178178,0.178181 0.577771,-0.178179 0.755952,0 1.564092,1.564092 -2.39014,-0.06114 0.755951,1.511905 0.225383,0.112692 0.577774,-0.178181 0.755952,0 0.178181,0.178179 -0.112689,0.530572 0,0.755952 0.318738,0.637476 1.193168,0.874429 1.511906,1.511906 0.112691,0.22538 -0.178181,0.57777 0,0.755951 0.178181,0.178179 0.530571,-0.112691 0.755951,0 0.318739,0.15937 0.437216,0.596583 0.755955,0.755952 0.450762,0.225383 1.155544,-0.356359 1.511903,0 0.178181,0.178181 -0.178178,0.577773 0,0.755954 0.178181,0.178179 0.577773,-0.178181 0.755952,0 0.356359,0.35636 -0.35636,1.155544 0,1.511904 0.02432,0.02432 2.084519,0 2.267857,0 1.511906,0 3.023809,0 4.535715,0 0.251984,0 0.577773,0.178181 0.755952,0 0.178181,-0.178179 -0.178179,-0.577774 0,-0.755952 0.178181,-0.178181 0.530571,0.112691 0.755954,0 0.318735,-0.159369 0.437213,-0.596585 0.755951,-0.755952 0.450763,-0.225382 1.155544,0.35636 1.511904,0 0.178181,-0.178181 -0.178179,-0.577773 0,-0.755954 0.178181,-0.178178 0.577773,0.178181 0.755954,0 0.178178,-0.178178 -0.178181,-0.577773 0,-0.755952 0.178178,-0.178181 0.503968,0 0.755952,0 0,-0.251983 -0.178181,-0.577773 0,-0.755951 0.178181,-0.178181 0.577773,0.178178 0.755951,0 0.178181,-0.178181 -0.178178,-0.577773 0,-0.755954 0.178181,-0.178179 0.577773,0.178181 0.755954,0 0.178179,-0.178179 -0.178181,-0.577771 0,-0.755952 0.178179,-0.178178 0.577771,0.178181 0.755952,0 0.377976,-0.377976 -0.377976,-1.889882 0,-2.267857 1.564092,-1.564093 -0.06114,2.390139 1.511903,-0.755952 0.225383,-0.450763 -0.356359,-1.155547 0,-1.511906 0.178181,-0.178178 0.577774,0.178181 0.755955,0 0.181903,-0.181904 -0.181907,-2.841903 0,-3.023809 0.178178,-0.178178 0.57777,0.178181 0.755951,0 0.181907,-0.181904 -0.181906,-2.841903 0,-3.023809 0.178181,-0.178179 0.577773,0.178181 0.755952,0 0.377976,-0.377976 -0.377976,-1.889882 0,-2.267858 0.178181,-0.178178 0.577773,0.178181 0.755954,0 0.50297,-0.50297 -0.50297,-1.008933 0,-1.511903 0.178178,-0.178181 0.577771,0.178178 0.755952,0 0.265353,-0.265356 -0.261081,-3.2576 0,-3.779763 0.934132,-1.868263 0.755951,0.260937 0.755951,-1.511904 0,-0.18334 -0.02432,-2.243547 0,-2.267857 0.178181,-0.178181 0.577774,0.178178 0.755952,0 0.02432,-0.02431 0,-2.08452 0,-2.267858 0,-2.519841 0,-5.039682 0,-7.559524 0,-0.395303 0.09938,-2.825038 0,-3.023809 -0.159367,-0.318738 -0.596583,-0.437216 -0.755952,-0.755951 -0.521364,-1.042729 0.915501,-0.67618 -0.755951,-1.511906 -0.225383,-0.112692 -0.577774,0.178181 -0.755952,0 -0.377978,-0.377976 0.377976,-1.889882 0,-2.267858 -0.178181,-0.178178 -0.577773,0.178181 -0.755954,0 -0.178179,-0.178178 0.112691,-0.530571 0,-0.755951 -0.159369,-0.318739 -0.596583,-0.437216 -0.755952,-0.755952 -0.149865,-0.299731 0.154543,-2.113314 0,-2.267857 -0.178181,-0.178181 -0.577773,0.178178 -0.755951,0 -0.178181,-0.178181 0.112688,-0.530572 0,-0.755952 -0.15937,-0.318738 -0.596586,-0.437216 -0.755955,-0.755954 -0.149862,-0.299729 0.154546,-2.113313 0,-2.267857 -0.178178,-0.178179 -0.57777,0.17818 -0.755951,0 -0.178179,-0.178179 0.112691,-0.530571 0,-0.755952 -0.159369,-0.318738 -0.596583,-0.437215 -0.755952,-0.755953 -0.112691,-0.225381 0.178178,-0.577772 0,-0.755952 -0.178181,-0.17818 -0.577773,0.17818 -0.755952,0 -0.178181,-0.17818 0.178179,-0.577773 0,-0.755952 -0.178181,-0.17818 -0.577773,0.178179 -0.755954,0 -1.564092,-1.564093 2.39014,0.06114 -0.755951,-1.511905 -2.015874,0 0.251983,0.251984 -0.755952,-0.755952 -0.356359,-0.35636 -1.155547,0.356359 -1.511906,0 -0.178178,-0.17818 0.178181,-0.577773 0,-0.755953 -0.178178,-0.178179 -0.503968,0 -0.755952,0 0,-0.251984 0.178179,-0.577772 0,-0.755952 -0.356359,-0.356359 -1.155546,0.356359 -1.511905,0 -0.178179,-0.17818 0.178181,-0.577773 0,-0.755953 -0.178179,-0.178179 -0.577771,0.17818 -0.755952,0 -0.178181,-0.178179 0.178181,-0.577772 0,-0.755952 -0.178181,-0.17818 -0.503968,0 -0.755952,0 -0.18334,0 -2.243547,0.02431 -2.267857,0 -0.178181,-0.17818 0,-0.503968 0,-0.755952"
       id="path16"
       inkscape:connector-curvature="0" />
    <path
       style="fill:none;stroke:#000000;stroke-width:0.26458332px;stroke-linecap:butt;stroke-linejoin:miter;stroke-opacity:1"
       d="m 49.892857,15.029762 c -2.267858,-1.763889 -4.641374,-3.399743 -6.803573,-5.291667 -0.189637,-0.1659326 0.577774,-0.1781796 0.755955,0 0.178178,0.1781797 -0.178181,0.577773 0,0.755952 0.356359,0.35636 1.155544,-0.356359 1.511903,0 0.178181,0.17818 -0.178178,0.577773 0,0.755953 0.356359,0.356359 1.061143,-0.225381 1.511906,0 0.318735,0.159369 0.437213,0.596583 0.755951,0.755952 0.410094,0.205048 2.816964,-0.206845 3.02381,0 0.178181,0.17818 -0.178179,0.577773 0,0.755953 0.178181,0.178179 0.503967,0 0.755951,0 1.511906,0 3.023812,0 4.535715,0 0.251984,0 0.577773,-0.17818 0.755952,0 0.178181,0.178179 -0.178179,0.577772 0,0.755952 0.356359,0.356359 1.155546,-0.356359 1.511906,0 0.178181,0.17818 -0.178181,0.577773 0,0.755952 0.178181,0.17818 0.503967,0 0.755951,0 1.511906,0 3.023809,0 4.535715,0 0.277614,0 2.99339,-0.03042 3.023809,0 0.178181,0.17818 -0.178178,0.577773 0,0.755953 0.178181,0.178179 0.503968,0 0.755952,0 0.251986,0 0.50397,0 0.755954,0 2.015871,0 4.031745,0 6.047618,0"
       id="path18"
       inkscape:connector-curvature="0" />
    <path
       style="fill:#ff0000;stroke-width:0.26458332"
       id="path20"
       d="m 19.064914,78.673972 c 2.108743,1.003335 4.084315,2.216952 6.324659,2.918013 1.315796,0.667975 2.70647,0.99495 4.163607,1.131263 1.444988,0.09382 2.894232,0.07991 4.341463,0.07713 1.510001,-0.0054 3.020002,-0.0096 4.530008,-0.0118 1.512782,-0.0019 3.025563,-0.0019 4.538345,-0.0021 1.511991,-3.4e-5 3.023981,2.7e-5 4.535972,5.6e-5 1.497692,-0.06442 3.020785,0.152765 4.495757,-0.144055 0.755407,-0.529138 1.678594,-0.666364 2.508359,-1.001435 0.380164,-0.153517 0.724196,-0.386141 1.099103,-0.552085 -15.542485,11.259463 -10.545498,5.845178 -6.911237,3.679687 3.589517,-2.581129 0.852136,-0.636373 10.605778,-6.130901 3.074043,-1.7317 -12.179834,7.125804 -9.185016,5.260438 3.30595,-2.059159 6.727791,-3.926657 10.11899,-5.842174 1.839677,-1.039141 -0.638874,0.666085 1.003691,-0.507267 3.616108,-1.7969 1.621502,-0.818431 -8.685471,5.034293 -0.158901,0.09023 0.295285,-0.215392 0.445402,-0.319583 0.491786,-0.341331 0.89698,-0.705043 1.324459,-1.126122 0.925364,-0.741659 1.668293,-1.627907 2.391384,-2.555488 0.4543,-1.014982 1.274423,-1.762509 1.875996,-2.672866 0.535916,-1.080426 0.65451,-2.281669 0.483804,-3.461147 -0.05152,-0.141351 -0.08505,-0.290624 -0.154565,-0.42405 -0.04234,-0.08128 -0.08763,-0.187743 -0.176278,-0.211008 -0.05273,-0.01384 -0.124698,0.169444 -0.07608,0.144777 12.275029,-6.227773 11.490732,-7.797683 9.091948,-4.217352 -0.47212,1.169905 -0.776626,2.300591 -1.628312,3.269564 -3.900625,2.409087 -7.126417,5.675839 -11.564217,6.183934 -0.753124,0.08623 -1.455172,0.09535 -2.197129,0.264822 -1.504617,0.353573 -3.044984,0.477501 -4.584391,0.551034 -1.38104,0.100312 -2.686214,-0.35692 -3.934759,-0.883274 -1.129694,-0.695804 -1.959549,-1.669084 -2.807422,-2.660872 -0.722916,-0.957263 -1.197091,-2.06484 -1.786985,-3.100118 -0.657223,-1.200462 -1.34452,-2.381252 -1.875666,-3.64459 -0.53839,-1.16653 -1.30592,-2.179355 -1.777201,-3.377314 -0.281278,-1.254273 -0.676045,-2.480617 -0.951894,-3.736906 -0.272902,-1.426898 -0.30803,-2.882995 -0.337582,-4.330983 -0.01976,-1.512332 -0.01352,-3.024857 -0.01114,-4.537276 0.0027,-1.513081 0.0038,-3.026164 0.0044,-4.53925 0.02395,-1.503553 -0.05364,-3.010088 0.0518,-4.510823 0.168955,-1.263869 0.472196,-2.489361 0.878128,-3.694951 0.235826,-1.217044 0.576736,-2.303963 1.227357,-3.358369 0.406556,-1.168795 1.080913,-1.915367 2.031476,-2.655515 3.389828,-1.930643 6.787547,-3.847502 10.169485,-5.79193 0.320567,-0.184309 1.278644,-0.743499 0.958829,-0.55789 -3.055146,1.773103 -6.116259,3.536043 -9.187548,5.281036 -0.159274,0.09049 0.290997,-0.224301 0.449385,-0.316331 3.370707,-1.958506 6.757344,-3.889457 10.136018,-5.834187 1.251339,-0.167365 2.412166,-0.589822 3.634978,-0.873981 1.381545,-0.258973 2.791769,-0.281572 4.192775,-0.306286 1.507688,-0.01616 3.015504,-0.0094 4.523245,-0.0065 1.666063,0.201798 2.581016,1.408057 3.357097,2.768073 0.432094,1.260989 1.354153,2.210541 1.903767,3.411419 0.508365,1.368345 0.903608,2.759779 1.142987,4.199382 0.214238,1.521462 0.234047,3.06034 0.250647,4.593912 0.0085,1.515687 0.0021,3.031408 -7.93e-4,4.547103 -0.0013,0.755973 -0.0021,1.511946 -0.0029,2.267921 0,0 -10.01323,5.100936 -10.01323,5.100936 v 0 c 5.29e-4,-0.756311 0.0011,-1.51262 0.0024,-2.268931 0.0027,-1.512419 0.0082,-3.024844 0.0059,-4.537268 -0.0079,-1.483924 -0.01095,-2.972086 -0.17734,-4.448638 -0.190616,-1.352415 -0.550066,-2.644093 -1.015177,-3.926925 -0.507235,-1.172567 -1.458007,-2.079511 -1.835385,-3.320664 -0.641996,-1.11616 -1.33036,-1.84373 -2.7104,-1.782384 -1.501717,-0.0016 -3.003862,-0.0079 -4.505095,0.03657 -1.362382,0.05715 -2.734775,0.136175 -4.051681,0.520684 -1.168167,0.345075 -2.406919,0.489246 -3.48647,1.076002 30.464051,-17.716841 -23.534747,13.769091 6.75699,-3.917053 -1.968854,1.011592 0.995527,-0.552844 -0.900239,0.587171 -0.689266,0.414489 -1.206402,0.634302 -1.351555,1.545474 -0.248016,0.519123 -0.597789,0.859504 -0.884733,1.331838 -0.338497,0.557194 -0.243406,1.227609 -0.440695,1.828403 -0.33751,1.181958 -0.820573,2.294702 -0.967412,3.530772 -0.308398,1.429401 -0.04169,2.927152 -0.129799,4.38054 -5.29e-4,1.513525 -0.0013,3.02705 -0.0039,4.540572 -0.0026,1.505906 -0.0084,3.011853 0.0033,4.517732 0.01876,1.381204 0.03313,2.769584 0.251839,4.136826 0.237005,1.209577 0.665014,2.364883 0.870508,3.58036 0.432535,1.198137 1.251175,2.182654 1.745017,3.356809 0.498009,1.228622 1.195533,2.350574 1.828816,3.51173 0.550783,0.978008 0.995111,2.023086 1.676773,2.923873 0.716907,0.864132 1.470189,1.715019 2.514417,2.193917 1.161828,0.441264 2.385462,0.626565 3.627393,0.487871 1.518621,-0.120373 3.020978,-0.342474 4.513995,-0.646938 0.721804,-0.08474 1.460921,-0.134459 2.166689,-0.319048 3.39549,-0.888077 10.593048,-7.50411 -7.826235,4.82768 1.185312,-0.64039 1.562275,-1.552993 1.792841,-2.842951 1.727528,-4.194857 9.773933,-10.441826 11.534782,-5.196326 0.263848,1.377156 0.239342,2.733765 -0.16665,4.090341 -0.522798,1.420387 -1.266907,1.539066 -1.811486,2.819636 -0.635571,1.054409 -1.384054,1.987198 -2.287775,2.820294 -0.489445,0.37664 -0.800912,0.860023 -1.262528,1.252321 -3.214251,2.731582 -7.339645,4.33678 -11.008387,6.479643 -0.343294,0.151675 -1.33242,0.690382 -1.007821,0.501991 3.048759,-1.769451 12.23972,-6.998965 9.151215,-5.299837 -34.092102,18.755643 6.588537,-2.937097 -1.450525,0.792049 -0.869225,0.741251 0.04606,0.02955 -0.92338,0.584872 -0.750353,0.429826 -0.151273,0.179607 -0.834308,0.735666 -3.172743,2.582931 -13.662581,-5.193684 -10.631607,6.132658 -1.212844,0.536966 -2.496844,1.019249 -3.795567,1.275823 -1.524058,0.07039 -3.050296,0.02365 -4.57563,0.03671 -1.511953,-3.2e-5 -3.023904,-1.06e-4 -4.535858,6.8e-5 -1.512398,2.65e-4 -3.024796,7.94e-4 -4.537194,0.0035 -1.510866,0.0032 -3.021727,0.0096 -4.532597,0.0099 -1.47821,-0.0056 -2.962345,-0.0019 -4.43118,-0.190357 -1.487294,-0.244613 -2.888327,-0.722765 -4.262995,-1.340906 -2.182695,-0.825399 -4.14424,-2.090621 -6.3306643,-2.898399 0,0 9.2878933,-6.301745 9.2878933,-6.301745 z"
       inkscape:connector-curvature="0" />
  </g>
</svg>
